<svg width="30" height="23" fill="none" xmlns="http://www.w3.org/2000/svg"><path d="M25.982 23H4.018C1.803 23 0 21.205 0 19V4c0-2.206 1.803-4 4.02-4h21.96C28.197 0 30 1.794 30 4v15c0 2.205-1.803 4-4.018 4ZM4.018 1.143A2.866 2.866 0 0 0 1.15 4v15a2.867 2.867 0 0 0 2.87 2.857h21.962A2.867 2.867 0 0 0 28.85 19V4a2.867 2.867 0 0 0-2.87-2.857H4.019ZM20.704 3.36a2.588 2.588 0 0 1 2.594 2.582 2.588 2.588 0 0 1-2.594 2.582 2.588 2.588 0 0 1-2.594-2.582 2.588 2.588 0 0 1 2.594-2.582Zm3.616 0a2.588 2.588 0 0 1 2.595 2.582 2.588 2.588 0 0 1-2.595 2.582 2.588 2.588 0 0 1-2.594-2.582A2.588 2.588 0 0 1 24.32 3.36ZM3.086 16.334h4.782v1.714H3.086v-1.714Zm6.349 0h4.782v1.714H9.435v-1.714Zm6.347 0h4.784v1.714h-4.784v-1.714Zm6.349 0h4.783v1.714H22.13v-1.714ZM3.085 3.36h9.04v1.715h-9.04V3.36Zm0 3.402H7.87v1.714H3.086V6.762Z" fill="#292929"/></svg>