<svg width="40" height="32" fill="none" xmlns="http://www.w3.org/2000/svg"><path d="m39.946 8.895-2.436-5.99a.696.696 0 0 0-.471-.419l-2.928-.778c-8.572-2.277-19.65-2.277-28.222 0l-2.928.778a.695.695 0 0 0-.471.419L.054 8.895a.735.735 0 0 0-.013.518l.974 2.796a.714.714 0 0 0 .315.383.686.686 0 0 0 .483.08l9.256-1.897a.7.7 0 0 0 .366-.204.726.726 0 0 0 .188-.381l.802-4.864c4.412-1.136 10.738-1.136 15.15 0l.802 4.864c.024.144.09.276.188.38a.696.696 0 0 0 .366.205l9.256 1.897a.686.686 0 0 0 .483-.08.714.714 0 0 0 .315-.383l.974-2.796a.736.736 0 0 0-.013-.518ZM2.132 11.141l-.5-1.435 8.965-1.92-.276 1.677-8.19 1.678Zm9.49-7.084a.698.698 0 0 0-.334.21.726.726 0 0 0-.17.363l-.27 1.635L1.86 8.19l1.79-4.403L6.24 3.1C14.6.88 25.4.88 33.76 3.1l2.59.688 1.79 4.403-8.988-1.925-.27-1.635a.726.726 0 0 0-.17-.362.7.7 0 0 0-.334-.211c-4.776-1.35-11.98-1.35-16.756 0Zm26.246 7.084L29.68 9.463l-.276-1.677 8.965 1.92-.5 1.435Z" fill="#F1CDB3"/><path d="M33.29 13.119a.724.724 0 0 0-.19-.355.696.696 0 0 0-.348-.192l-4.774-1.046-.602-4.012a.723.723 0 0 0-.236-.436.691.691 0 0 0-.457-.173h-1.869v-.941a.71.71 0 0 0-.701-.718.71.71 0 0 0-.701.718v.94h-6.824v-.94a.71.71 0 0 0-.7-.718.71.71 0 0 0-.702.718v.94h-1.87a.691.691 0 0 0-.456.174.723.723 0 0 0-.236.436l-.602 4.012-4.774 1.046a.696.696 0 0 0-.347.192.723.723 0 0 0-.191.355L3.468 28.088a.738.738 0 0 0-.017.155v3.039c0 .19.074.373.206.508.131.134.31.21.495.21h31.696a.693.693 0 0 0 .495-.21.728.728 0 0 0 .206-.508v-3.039a.733.733 0 0 0-.017-.155l-3.242-14.97Zm-25.309.761 4.808-1.053a.697.697 0 0 0 .363-.21.726.726 0 0 0 .183-.383l.583-3.893h12.164l.583 3.893a.726.726 0 0 0 .183.384.697.697 0 0 0 .364.21l4.807 1.052 2.955 13.645H5.026L7.981 13.88Zm3.816 15.082-.904 1.601H9.829l.903-1.601h1.066Zm1.619 0h15.256l-.903 1.601H12.513l.903-1.601Zm-8.563 0h4.258l-.903 1.601H4.853v-1.601Zm24.535 1.601.904-1.601h4.855v1.601h-5.758Z" fill="#F1CDB3"/><path d="M20 26.16c4.15 0 7.525-3.458 7.525-7.71S24.149 10.74 20 10.74c-4.15 0-7.525 3.458-7.525 7.71s3.376 7.71 7.525 7.71Zm0-13.984c3.376 0 6.123 2.815 6.123 6.274 0 3.46-2.747 6.274-6.123 6.274-3.376 0-6.123-2.815-6.123-6.274 0-3.46 2.747-6.274 6.123-6.274Z" fill="#F1CDB3"/><path d="M20 21.185c1.472 0 2.67-1.227 2.67-2.735 0-1.508-1.198-2.735-2.67-2.735s-2.67 1.227-2.67 2.735c0 1.508 1.198 2.735 2.67 2.735Zm0-4.034c.699 0 1.267.583 1.267 1.299s-.568 1.298-1.267 1.298-1.267-.582-1.267-1.298c0-.716.568-1.299 1.267-1.299Z" fill="#F1CDB3"/></svg>