<svg width="60" height="60" fill="none" xmlns="http://www.w3.org/2000/svg"><path d="M59.656 15.899 44.101.343a1.172 1.172 0 0 0-1.657 0l-4.143 4.142a1.172 1.172 0 0 0 0 1.658l4.921 4.92-4.658 4.66-7.172-7.171a1.172 1.172 0 0 0-1.657 0l-4.758 4.758a1.172 1.172 0 0 0 0 1.657l1.511 1.511L7.065 35.902a4.583 4.583 0 0 0 0 6.474l1.491 1.491-2.734 2.735a1.172 1.172 0 0 0 0 1.657l2.13 2.13L.344 58A1.172 1.172 0 0 0 2 59.656l7.61-7.61 2.131 2.132a1.172 1.172 0 0 0 1.657 0l2.735-2.735 1.49 1.492a4.548 4.548 0 0 0 3.238 1.34 4.548 4.548 0 0 0 3.237-1.34L43.52 33.512l1.511 1.51a1.168 1.168 0 0 0 1.658 0l4.758-4.757a1.172 1.172 0 0 0 0-1.658l-7.171-7.17 4.659-4.66 4.92 4.921a1.168 1.168 0 0 0 1.658 0l4.142-4.142c.458-.458.458-1.2 0-1.658Zm-34.92 5.647 5.422 5.422a1.168 1.168 0 0 0 .828.343 1.172 1.172 0 0 0 .829-2l-5.422-5.422 1.752-1.753 10.089 10.09-5.36 5.358-10.088-10.088 1.95-1.95ZM12.57 51.692 8.308 47.43l1.906-1.905 4.261 4.261-1.905 1.906Zm9.87-.415a2.236 2.236 0 0 1-3.159 0L8.722 40.72a2.237 2.237 0 0 1 0-3.16l1.67-1.669 2.885 2.886a1.168 1.168 0 0 0 1.658 0c.457-.458.457-1.2 0-1.658l-2.886-2.885 1.928-1.929 5.422 5.422a1.168 1.168 0 0 0 1.657 0c.458-.458.458-1.2 0-1.658l-5.422-5.421 1.93-1.929 2.885 2.886a1.168 1.168 0 0 0 1.657 0c.458-.458.458-1.2 0-1.658l-2.886-2.885 1.908-1.908 10.089 10.089-7.621 7.62a1.172 1.172 0 0 0 1.657 1.658l7.621-7.62 1.972 1.97L22.44 51.278Zm14.064-14.063-1.972-1.972 5.36-5.36 1.971 1.972-5.359 5.36Zm12.458-7.778-3.101 3.1L27.463 14.14l3.1-3.101 18.399 18.398Zm-6.343-9.657-2.398-2.399 4.659-4.659 2.398 2.399-4.658 4.659Zm12.066-.567L40.787 5.314l2.486-2.485L57.17 16.727l-2.486 2.485Z" fill="#F1CDB3"/><path d="M22.316 46.72a1.156 1.156 0 0 0-.7-.853 1.18 1.18 0 0 0-.677-.066 1.18 1.18 0 0 0-.854.7 1.157 1.157 0 0 0 .253 1.276 1.157 1.157 0 0 0 .83.344 1.157 1.157 0 0 0 1.082-.723 1.144 1.144 0 0 0 .09-.449 1.15 1.15 0 0 0-.024-.228Z" fill="#F1CDB3"/></svg>