<svg width="60" height="60" fill="none" xmlns="http://www.w3.org/2000/svg"><path d="m59.985 39.855-2.86-19.21c-.046-5.58-3.432-10.752-9.31-14.207C42.949 3.576 36.622 2 30 2S17.052 3.576 12.184 6.438c-5.877 3.455-9.263 8.628-9.31 14.206L.014 39.855a1.509 1.509 0 0 0-.014.201c0 5.649 3.765 10.88 10.328 14.352 5.374 2.842 12.36 4.408 19.672 4.408 7.312 0 14.298-1.566 19.672-4.408C56.235 50.936 60 45.705 60 40.056c0-.067-.005-.134-.015-.2ZM13.567 8.79C18.02 6.17 23.857 4.729 30 4.729c6.142 0 11.978 1.442 16.433 4.06 5.063 2.977 7.966 7.34 7.966 11.97 0 4.632-2.903 8.994-7.966 11.97-4.455 2.62-10.29 4.062-16.433 4.062-6.142 0-11.979-1.442-16.433-4.061C8.504 29.754 5.6 25.39 5.6 20.76c0-4.63 2.903-8.994 7.966-11.97Zm34.829 43.206C43.408 54.634 36.875 56.087 30 56.087s-13.408-1.453-18.396-4.091c-5.6-2.963-8.83-7.274-8.875-11.843l1.879-12.619c1.564 2.927 4.145 5.53 7.576 7.548C17.052 37.943 23.38 39.52 30 39.52c6.621 0 12.949-1.577 17.816-4.438 3.431-2.017 6.012-4.621 7.576-7.548l1.879 12.62c-.046 4.568-3.275 8.88-8.875 11.842Z" fill="#F1CDB3"/><path d="M30 34.062c9.353 0 17.608-3.62 20.54-9.005.75-1.377 1.13-2.823 1.13-4.297 0-3.692-2.35-7.108-6.62-9.618C41.01 8.766 35.664 7.458 30 7.458c-5.663 0-11.008 1.308-15.05 3.684-4.27 2.51-6.62 5.926-6.62 9.618 0 1.475.38 2.92 1.13 4.296 2.932 5.387 11.187 9.006 20.54 9.006Zm0-2.729c-7.845 0-14.972-2.818-17.744-6.932 2.773-4.112 9.9-6.928 17.744-6.928 7.843 0 14.971 2.816 17.745 6.928-2.772 4.114-9.9 6.932-17.745 6.932ZM11.058 20.76c0-2.686 1.873-5.266 5.275-7.266 3.629-2.133 8.482-3.307 13.667-3.307 5.184 0 10.038 1.174 13.667 3.308 3.402 2 5.275 4.58 5.275 7.265 0 .24-.016.478-.046.716-3.763-4.106-10.93-6.731-18.896-6.731-7.966 0-15.133 2.625-18.896 6.731a5.754 5.754 0 0 1-.046-.716ZM30 41.77a1.366 1.366 0 0 0-.987.422c-.889.931-3.788 4.145-3.788 6.4A4.78 4.78 0 0 0 30 53.367a4.78 4.78 0 0 0 4.775-4.775c0-2.255-2.9-5.468-3.788-6.4A1.367 1.367 0 0 0 30 41.77Zm0 8.868a2.049 2.049 0 0 1-2.046-2.046c0-.606.952-2.07 2.046-3.398 1.094 1.329 2.047 2.792 2.047 3.398A2.049 2.049 0 0 1 30 50.638Z" fill="#F1CDB3"/><path d="M23.884 23.898h-.42a1.364 1.364 0 1 0 0 2.728h.42a1.364 1.364 0 1 0 0-2.728Zm16.19 0h-9.732a1.364 1.364 0 1 0 0 2.728h9.732a1.364 1.364 0 1 0 0-2.728Z" fill="#F1CDB3"/></svg>