<svg width="60" height="60" fill="none" xmlns="http://www.w3.org/2000/svg"><path d="m52.898 25.498-5.755-15.75v-8.32A1.43 1.43 0 0 0 45.714 0H14.286c-.79 0-1.429.64-1.429 1.429v8.318l-5.755 15.75a16.918 16.918 0 0 0-1.03 5.825v23.755A4.93 4.93 0 0 0 10.994 60h38.01a4.929 4.929 0 0 0 4.923-4.923V31.322c0-1.993-.346-3.953-1.03-5.824ZM15.714 2.858h28.572V8.57H15.714V2.857Zm35.358 47.274H30.907a1.429 1.429 0 0 0 0 2.857H51.07v2.087c0 1.14-.926 2.067-2.066 2.067h-38.01a2.069 2.069 0 0 1-2.066-2.067V31.322a14.07 14.07 0 0 1 .857-4.844l5.499-15.05h29.43l5.5 15.05c.567 1.552.857 3.191.856 4.844v18.81Z" fill="#F1CDB3"/><path d="M35.617 33.805a6.153 6.153 0 0 0-6.066-5.173 6.153 6.153 0 0 0-6.067 5.173 6.176 6.176 0 0 0-3.794 6.16c.227 2.999 2.66 5.427 5.659 5.65a6.141 6.141 0 0 0 3.326-.69 1.852 1.852 0 0 1 1.75.001 6.132 6.132 0 0 0 3.327.689c2.998-.223 5.431-2.651 5.659-5.649a6.176 6.176 0 0 0-3.794-6.161Zm.945 5.944a3.294 3.294 0 0 1-3.022 3.017 3.281 3.281 0 0 1-1.781-.367 4.73 4.73 0 0 0-4.416 0 3.283 3.283 0 0 1-1.782.367 3.294 3.294 0 0 1-3.022-3.017 3.3 3.3 0 0 1 2.594-3.474 1.428 1.428 0 0 0 1.134-1.428l-.002-.072a3.29 3.29 0 0 1 3.285-3.286 3.288 3.288 0 0 1 3.286 3.28l-.002.078a1.428 1.428 0 0 0 1.134 1.428 3.3 3.3 0 0 1 2.594 3.474ZM29.55 25.775a4.648 4.648 0 0 0 4.643-4.643 4.648 4.648 0 0 0-4.642-4.643 4.648 4.648 0 0 0-4.643 4.643 4.648 4.648 0 0 0 4.643 4.643Zm0-6.428c.985 0 1.786.8 1.786 1.785 0 .985-.8 1.786-1.785 1.786a1.788 1.788 0 0 1-1.786-1.786c0-.985.801-1.786 1.786-1.786Zm-5.356 7.309a4.648 4.648 0 0 0-4.643-4.643 4.648 4.648 0 0 0-4.643 4.643A4.648 4.648 0 0 0 19.55 31.3a4.648 4.648 0 0 0 4.643-4.643Zm-4.643 1.786a1.788 1.788 0 0 1-1.786-1.786c0-.985.8-1.786 1.786-1.786a1.787 1.787 0 0 1 0 3.572Zm19.999-6.429a4.648 4.648 0 0 0-4.642 4.643 4.648 4.648 0 0 0 4.643 4.643 4.648 4.648 0 0 0 4.642-4.643 4.648 4.648 0 0 0-4.642-4.643Zm0 6.429a1.788 1.788 0 0 1-1.785-1.786c0-.985.8-1.786 1.786-1.786a1.787 1.787 0 0 1 0 3.572Zm-14.857 21.69h-.347a1.429 1.429 0 0 0 0 2.857h.347a1.429 1.429 0 0 0 0-2.857Z" fill="#F1CDB3"/></svg>