<svg width="60" height="60" fill="none" xmlns="http://www.w3.org/2000/svg"><path d="M37.13 17.181V11.74c0-.72-.584-1.304-1.304-1.304h-.978v-9.13C34.848.583 34.264 0 33.543 0h-8.478c-.72 0-1.304.584-1.304 1.304v9.13h-.979c-.72 0-1.304.585-1.304 1.305v5.442c-4.58 1.827-7.826 6.307-7.826 11.531v29.984c0 .72.584 1.304 1.304 1.304h28.696c.72 0 1.304-.584 1.304-1.304V28.712c0-5.224-3.245-9.704-7.826-11.53ZM26.37 2.61h5.869v7.826h-5.87V2.609Zm-2.283 10.434H34.52v3.261H24.087v-3.26Zm18.26 44.348H16.262v-28.68c0-5.403 4.396-9.799 9.799-9.799h6.489c5.403 0 9.799 4.396 9.799 9.8V57.39Z" fill="#F1CDB3"/><path d="M37.782 27.391H20.826c-.72 0-1.304.584-1.304 1.305v24.13c0 .72.584 1.304 1.304 1.304h16.956c.72 0 1.305-.584 1.305-1.304v-8.197a1.304 1.304 0 0 0-2.609 0v6.893H22.13V30h14.348v4.129a1.304 1.304 0 1 0 2.609 0v-5.433c0-.72-.584-1.305-1.305-1.305Z" fill="#F1CDB3"/><path d="M37.782 38.065c-.72 0-1.304.583-1.304 1.304v.13a1.304 1.304 0 0 0 2.609 0v-.13c0-.72-.584-1.304-1.305-1.304Zm-9.79 3.086a3.917 3.917 0 0 0-3.913 3.913 3.917 3.917 0 0 0 3.913 3.913 3.917 3.917 0 0 0 3.913-3.913 3.917 3.917 0 0 0-3.913-3.913Zm0 5.218a1.306 1.306 0 0 1 0-2.609 1.306 1.306 0 0 1 0 2.609Zm6.854-10.385a3.917 3.917 0 0 0-3.913-3.913 3.917 3.917 0 0 0-3.913 3.913 3.917 3.917 0 0 0 3.913 3.913 3.917 3.917 0 0 0 3.913-3.913Zm-3.913 1.305a1.306 1.306 0 0 1 0-2.609 1.306 1.306 0 0 1-.001 2.609Z" fill="#F1CDB3"/></svg>