<svg width="40" height="32" fill="none" xmlns="http://www.w3.org/2000/svg"><path d="M39.315 3H.685a.68.68 0 0 0-.484.204.7.7 0 0 0-.201.491v24.61a.7.7 0 0 0 .2.491.68.68 0 0 0 .485.204h38.63a.68.68 0 0 0 .484-.204.7.7 0 0 0 .201-.491V3.695a.7.7 0 0 0-.2-.491.68.68 0 0 0-.485-.204Zm-6.738 15.033c.108.493.218 1.002.074 1.255-.154.272-.654.43-1.138.582-.381.12-.776.245-1.127.451-.34.2-.634.48-.918.75-.39.372-.76.723-1.094.723-.334 0-.703-.352-1.094-.724-.284-.27-.578-.55-.918-.749-.351-.206-.746-.33-1.127-.451-.484-.153-.984-.31-1.138-.582-.144-.253-.034-.762.073-1.255.088-.405.18-.823.18-1.25 0-.429-.092-.847-.18-1.252-.107-.493-.217-1.002-.073-1.255.154-.271.654-.43 1.138-.582.381-.12.776-.245 1.127-.451.34-.2.634-.479.918-.75.39-.371.76-.723 1.094-.723.334 0 .703.352 1.094.724.284.27.578.55.918.749.351.206.746.33 1.127.451.484.153.984.31 1.138.582.144.253.034.762-.074 1.255-.087.404-.178.823-.178 1.25 0 .43.09.848.178 1.252Zm-1.98-6.372-.192-.181c-.515-.49-1.155-1.1-2.031-1.1-.876 0-1.516.61-2.031 1.1-.238.226-.463.44-.667.56-.219.128-.524.225-.848.327-.7.22-1.494.471-1.917 1.213-.41.72-.234 1.533-.078 2.25.075.348.146.676.146.952 0 .277-.07.605-.146.952-.135.622-.286 1.316-.055 1.959L20 22.546 2.324 4.39h35.35l-7.076 7.27ZM11.701 16 1.37 26.612V5.388L11.7 16Zm.963.989 6.848 7.035a.683.683 0 0 0 .752.153.684.684 0 0 0 .223-.153l3.197-3.284c.36.21.765.338 1.144.458.324.102.63.198.848.326.204.12.428.334.667.56.515.49 1.155 1.1 2.031 1.1.876 0 1.516-.61 2.031-1.1.238-.226.463-.44.667-.56a2.73 2.73 0 0 1 .478-.206l6.125 6.291H2.325l10.338-10.62Zm20.302 3.806c.346-.184.656-.434.871-.81.41-.721.234-1.534.078-2.251-.075-.347-.146-.675-.146-.952 0-.276.07-.604.146-.951.156-.718.333-1.53-.078-2.251-.423-.742-1.217-.992-1.917-1.213l-.064-.02 6.774-6.96v21.225l-5.664-5.817Z" fill="#F1CDB3"/><path d="M28.374 13.242c-1.923 0-3.487 1.588-3.487 3.54s1.564 3.54 3.487 3.54 3.487-1.588 3.487-3.54-1.564-3.54-3.487-3.54Zm0 5.69c-1.168 0-2.118-.965-2.118-2.15s.95-2.15 2.118-2.15 2.117.965 2.117 2.15-.95 2.15-2.117 2.15Z" fill="#F1CDB3"/></svg>