<svg width="60" height="60" fill="none" xmlns="http://www.w3.org/2000/svg"><path d="M51.213 8.787C45.547 3.12 38.013 0 30 0 21.987 0 14.453 3.12 8.787 8.787 3.12 14.453 0 21.987 0 30c0 8.013 3.12 15.547 8.787 21.213C14.453 56.88 21.987 60 30 60c8.013 0 15.547-3.12 21.213-8.787C56.88 45.547 60 38.013 60 30c0-8.013-3.12-15.547-8.787-21.213ZM10.631 49.368C5.904 44.641 3.12 38.491 2.674 31.883c.716.025 1.448.093 2.188.203 5.303.787 10.64 3.637 15.027 8.025 4.388 4.387 7.238 9.724 8.025 15.027.108.72.175 1.447.201 2.175a27.276 27.276 0 0 1-17.484-7.945Zm20.095 8a21.916 21.916 0 0 0-.231-2.614c-.87-5.852-3.981-11.708-8.761-16.488-4.78-4.78-10.636-7.891-16.489-8.76-.87-.13-1.747-.208-2.627-.233a27.81 27.81 0 0 1 .19-2.605c.93.03 1.874.116 2.82.257 6.403.95 12.777 4.323 17.95 9.496s8.546 11.548 9.497 17.95a24.8 24.8 0 0 1 .256 2.805 27.53 27.53 0 0 1-2.605.192Zm18.642-8a27.23 27.23 0 0 1-13.443 7.367 27.58 27.58 0 0 0-.27-2.747c-1.032-6.952-4.666-13.846-10.232-19.411-5.565-5.566-12.459-9.2-19.41-10.233a27.522 27.522 0 0 0-2.758-.27l-.007.006c1.108-5.056 3.635-9.7 7.383-13.449a27.225 27.225 0 0 1 12.804-7.217 27.37 27.37 0 0 0 .287 3.22c1.033 6.952 4.667 13.846 10.233 19.411 5.565 5.566 12.459 9.2 19.41 10.233 1.07.16 2.15.255 3.23.287l.012-.02c-1.175 4.814-3.645 9.23-7.239 12.823Zm7.74-15.402a24.43 24.43 0 0 1-3.359-.269c-6.402-.95-12.777-4.324-17.95-9.496-5.172-5.173-8.545-11.548-9.496-17.95a24.536 24.536 0 0 1-.269-3.343c.866-.125 1.737-.21 2.611-.253a21.62 21.62 0 0 0 .238 3.213c.87 5.852 3.981 11.708 8.761 16.488a1.305 1.305 0 0 0 1.845-1.845c-4.387-4.387-7.237-9.723-8.025-15.027a19.016 19.016 0 0 1-.212-2.833c6.591.298 13.095 2.958 18.117 7.98 4.877 4.878 7.688 11.271 7.993 18.117a19.09 19.09 0 0 1-2.846-.212 1.305 1.305 0 0 0-.383 2.58c1.077.16 2.14.24 3.175.24h.05a27.701 27.701 0 0 1-.25 2.61Z" fill="#F1CDB3"/><path d="M46.152 25.775a1.309 1.309 0 0 0-1.305 1.304 1.309 1.309 0 0 0 1.305 1.305c.343 0 .68-.14.922-.383.244-.245.38-.576.382-.922 0-.343-.14-.68-.382-.922a1.31 1.31 0 0 0-.922-.382Z" fill="#F1CDB3"/></svg>