<svg width="60" height="60" fill="none" xmlns="http://www.w3.org/2000/svg"><path d="M54.31 35.399c-3.274-1.115-7.605-1.729-12.194-1.729-.287 0-.573.002-.857.007-4.27.072-8.268.677-11.338 1.722a18.44 18.44 0 0 0-1.456.56V17.232C28.465 9.386 22.081 3 14.233 3 6.385 3 0 9.385 0 17.233v25.693C0 50.774 6.385 57.16 14.232 57.16c2.49 0 4.94-.653 7.087-1.887a14.31 14.31 0 0 0 3.598-2.946c.747 1.05 2.228 2.16 5.004 3.104 3.275 1.115 7.606 1.729 12.195 1.729s8.92-.614 12.195-1.729C59.013 53.83 60 51.757 60 50.3v-9.77c0-1.457-.987-3.53-5.69-5.13Zm-27.735 5.13c0-.043.005-.086.012-.13l.002-.01c.04-.213.167-.459.402-.725l.004-.005a4.21 4.21 0 0 1 .115-.122c.027-.027.054-.055.083-.082l.034-.032a5.35 5.35 0 0 1 .706-.54l.013-.01c.641-.416 1.532-.848 2.73-1.256 3.038-1.034 7.1-1.603 11.44-1.603 3.953 0 7.674.474 10.603 1.34l-25.08 4.622c-.752-.555-1.062-1.068-1.064-1.444v-.002Zm-.454-3.239c-.903.693-1.407 1.396-1.662 2.048a3.304 3.304 0 0 0-.221 1l-.002.03a3.18 3.18 0 0 0-.005.162v8.83a11.808 11.808 0 0 1-9.999 5.455c-6.555 0-11.888-5.333-11.888-11.889V31.251h2.344v6.328a1.172 1.172 0 0 0 2.343 0v-6.328h19.09v6.04Zm0-8.383H7.031V17.233c0-3.971 3.23-7.202 7.202-7.202 3.97 0 7.2 3.23 7.2 7.202a1.172 1.172 0 0 0 2.345 0c0-5.264-4.282-9.546-9.545-9.546-5.264 0-9.546 4.282-9.546 9.546v11.674H2.345V17.233c0-6.556 5.333-11.89 11.889-11.89 6.555 0 11.888 5.334 11.888 11.89v11.674ZM57.656 50.3c0 .7-1.074 1.882-4.1 2.913-3.039 1.033-7.101 1.603-11.44 1.603-4.34 0-8.402-.57-11.44-1.603-3.027-1.03-4.1-2.213-4.1-2.913v-6.206c.82.546 1.908 1.08 3.345 1.568 3.275 1.115 7.606 1.729 12.195 1.729s8.92-.614 12.195-1.729c1.436-.489 2.525-1.022 3.345-1.568V50.3Zm-4.1-6.857c-3.039 1.034-7.101 1.604-11.44 1.604-4.01 0-7.783-.488-10.73-1.377l25.139-4.633c.803.574 1.131 1.108 1.131 1.494 0 .7-1.074 1.882-4.1 2.912Z" fill="#F1CDB3"/><path d="M6.688 41.402a1.122 1.122 0 0 0-.381-.253 1.18 1.18 0 0 0-.676-.067 1.22 1.22 0 0 0-.422.175 1.118 1.118 0 0 0-.323.323 1.08 1.08 0 0 0-.108.203 1.146 1.146 0 0 0 0 .897 1.16 1.16 0 0 0 .253.38 1.185 1.185 0 0 0 .828.342 1.155 1.155 0 0 0 .65-.197 1.186 1.186 0 0 0 .324-.323 1.245 1.245 0 0 0 .176-.422 1.18 1.18 0 0 0-.321-1.058Z" fill="#F1CDB3"/></svg>